<mxfile host="app.diagrams.net" modified="2023-06-22T20:05:44.722Z" agent="Mozilla/5.0 (Windows NT 10.0; Win64; x64) AppleWebKit/537.36 (KHTML, like Gecko) Chrome/114.0.0.0 Safari/537.36" etag="5JjXcVl56CtzuVA79D7q" version="21.5.0" type="github">
  <diagram name="Página-1" id="SKrP5Ogb6LURRghhHCP2">
    <mxGraphModel dx="1434" dy="764" grid="1" gridSize="10" guides="1" tooltips="1" connect="1" arrows="1" fold="1" page="1" pageScale="1" pageWidth="1760" pageHeight="550" math="0" shadow="0">
      <root>
        <mxCell id="0" />
        <mxCell id="1" parent="0" />
        <mxCell id="iDgbX58GDVkkqR7G9HbA-1" value="Glosar facturas con valor de cups diferente a lo contratado" style="swimlane;html=1;childLayout=stackLayout;resizeParent=1;resizeParentMax=0;horizontal=1;startSize=20;horizontalStack=0;whiteSpace=wrap;" vertex="1" parent="1">
          <mxGeometry x="30" y="20" width="1570" height="460" as="geometry" />
        </mxCell>
        <mxCell id="iDgbX58GDVkkqR7G9HbA-2" value="RIps" style="swimlane;html=1;startSize=20;horizontal=0;" vertex="1" parent="iDgbX58GDVkkqR7G9HbA-1">
          <mxGeometry y="20" width="1570" height="440" as="geometry" />
        </mxCell>
        <mxCell id="iDgbX58GDVkkqR7G9HbA-3" style="edgeStyle=orthogonalEdgeStyle;rounded=0;orthogonalLoop=1;jettySize=auto;html=1;entryX=0;entryY=0.5;entryDx=0;entryDy=0;entryPerimeter=0;" edge="1" parent="iDgbX58GDVkkqR7G9HbA-2" source="iDgbX58GDVkkqR7G9HbA-4" target="iDgbX58GDVkkqR7G9HbA-19">
          <mxGeometry relative="1" as="geometry">
            <mxPoint x="110" y="60" as="targetPoint" />
          </mxGeometry>
        </mxCell>
        <mxCell id="iDgbX58GDVkkqR7G9HbA-4" value="" style="points=[[0.145,0.145,0],[0.5,0,0],[0.855,0.145,0],[1,0.5,0],[0.855,0.855,0],[0.5,1,0],[0.145,0.855,0],[0,0.5,0]];shape=mxgraph.bpmn.event;html=1;verticalLabelPosition=bottom;labelBackgroundColor=#ffffff;verticalAlign=top;align=center;perimeter=ellipsePerimeter;outlineConnect=0;aspect=fixed;outline=standard;symbol=general;fillColor=#f8cecc;strokeColor=#b85450;" vertex="1" parent="iDgbX58GDVkkqR7G9HbA-2">
          <mxGeometry x="40" y="40" width="40" height="40" as="geometry" />
        </mxCell>
        <mxCell id="iDgbX58GDVkkqR7G9HbA-5" value="" style="edgeStyle=orthogonalEdgeStyle;rounded=0;orthogonalLoop=1;jettySize=auto;html=1;exitX=1;exitY=0.5;exitDx=0;exitDy=0;exitPerimeter=0;entryX=0;entryY=0.5;entryDx=0;entryDy=0;entryPerimeter=0;" edge="1" parent="iDgbX58GDVkkqR7G9HbA-2" source="iDgbX58GDVkkqR7G9HbA-20" target="iDgbX58GDVkkqR7G9HbA-22">
          <mxGeometry relative="1" as="geometry">
            <mxPoint x="560" y="60" as="sourcePoint" />
          </mxGeometry>
        </mxCell>
        <mxCell id="iDgbX58GDVkkqR7G9HbA-6" value="No" style="edgeStyle=orthogonalEdgeStyle;rounded=0;orthogonalLoop=1;jettySize=auto;html=1;" edge="1" parent="iDgbX58GDVkkqR7G9HbA-2" source="iDgbX58GDVkkqR7G9HbA-8" target="iDgbX58GDVkkqR7G9HbA-26">
          <mxGeometry x="0.3684" relative="1" as="geometry">
            <mxPoint x="1007.5" y="190" as="targetPoint" />
            <mxPoint as="offset" />
          </mxGeometry>
        </mxCell>
        <mxCell id="iDgbX58GDVkkqR7G9HbA-7" value="Si" style="edgeStyle=orthogonalEdgeStyle;rounded=0;orthogonalLoop=1;jettySize=auto;html=1;entryX=0;entryY=0.5;entryDx=0;entryDy=0;entryPerimeter=0;" edge="1" parent="iDgbX58GDVkkqR7G9HbA-2" source="iDgbX58GDVkkqR7G9HbA-8" target="iDgbX58GDVkkqR7G9HbA-27">
          <mxGeometry relative="1" as="geometry">
            <mxPoint x="1102.5" y="60" as="targetPoint" />
          </mxGeometry>
        </mxCell>
        <mxCell id="iDgbX58GDVkkqR7G9HbA-8" value="Cups coincide&lt;br&gt;con AS?" style="points=[[0.25,0.25,0],[0.5,0,0],[0.75,0.25,0],[1,0.5,0],[0.75,0.75,0],[0.5,1,0],[0.25,0.75,0],[0,0.5,0]];shape=mxgraph.bpmn.gateway2;html=1;verticalLabelPosition=bottom;labelBackgroundColor=#ffffff;verticalAlign=top;align=center;perimeter=rhombusPerimeter;outlineConnect=0;outline=none;symbol=none;fillColor=#d5e8d4;strokeColor=#82b366;" vertex="1" parent="iDgbX58GDVkkqR7G9HbA-2">
          <mxGeometry x="982.5" y="35" width="50" height="50" as="geometry" />
        </mxCell>
        <mxCell id="iDgbX58GDVkkqR7G9HbA-9" style="edgeStyle=orthogonalEdgeStyle;rounded=0;orthogonalLoop=1;jettySize=auto;html=1;entryX=0;entryY=0.5;entryDx=0;entryDy=0;entryPerimeter=0;" edge="1" parent="iDgbX58GDVkkqR7G9HbA-2" target="iDgbX58GDVkkqR7G9HbA-10">
          <mxGeometry relative="1" as="geometry">
            <mxPoint x="1242.5" y="60" as="sourcePoint" />
          </mxGeometry>
        </mxCell>
        <mxCell id="iDgbX58GDVkkqR7G9HbA-10" value="" style="points=[[0.145,0.145,0],[0.5,0,0],[0.855,0.145,0],[1,0.5,0],[0.855,0.855,0],[0.5,1,0],[0.145,0.855,0],[0,0.5,0]];shape=mxgraph.bpmn.event;html=1;verticalLabelPosition=bottom;labelBackgroundColor=#ffffff;verticalAlign=top;align=center;perimeter=ellipsePerimeter;outlineConnect=0;aspect=fixed;outline=end;symbol=terminate2;fillColor=#f8cecc;strokeColor=#b85450;" vertex="1" parent="iDgbX58GDVkkqR7G9HbA-2">
          <mxGeometry x="1282.5" y="40" width="40" height="40" as="geometry" />
        </mxCell>
        <mxCell id="iDgbX58GDVkkqR7G9HbA-11" style="edgeStyle=orthogonalEdgeStyle;rounded=0;orthogonalLoop=1;jettySize=auto;html=1;" edge="1" parent="iDgbX58GDVkkqR7G9HbA-2" source="iDgbX58GDVkkqR7G9HbA-12" target="iDgbX58GDVkkqR7G9HbA-15">
          <mxGeometry relative="1" as="geometry" />
        </mxCell>
        <mxCell id="iDgbX58GDVkkqR7G9HbA-12" value="" style="points=[[0.145,0.145,0],[0.5,0,0],[0.855,0.145,0],[1,0.5,0],[0.855,0.855,0],[0.5,1,0],[0.145,0.855,0],[0,0.5,0]];shape=mxgraph.bpmn.event;html=1;verticalLabelPosition=bottom;labelBackgroundColor=#ffffff;verticalAlign=top;align=center;perimeter=ellipsePerimeter;outlineConnect=0;aspect=fixed;outline=standard;symbol=message;fillColor=#b1ddf0;strokeColor=#10739e;" vertex="1" parent="iDgbX58GDVkkqR7G9HbA-2">
          <mxGeometry x="1352.5" y="310" width="40" height="40" as="geometry" />
        </mxCell>
        <mxCell id="iDgbX58GDVkkqR7G9HbA-13" value="" style="points=[[0.145,0.145,0],[0.5,0,0],[0.855,0.145,0],[1,0.5,0],[0.855,0.855,0],[0.5,1,0],[0.145,0.855,0],[0,0.5,0]];shape=mxgraph.bpmn.event;html=1;verticalLabelPosition=bottom;labelBackgroundColor=#ffffff;verticalAlign=top;align=center;perimeter=ellipsePerimeter;outlineConnect=0;aspect=fixed;outline=end;symbol=terminate2;fillColor=#f8cecc;strokeColor=#b85450;" vertex="1" parent="iDgbX58GDVkkqR7G9HbA-2">
          <mxGeometry x="1482.5" y="220" width="40" height="40" as="geometry" />
        </mxCell>
        <mxCell id="iDgbX58GDVkkqR7G9HbA-14" style="edgeStyle=orthogonalEdgeStyle;rounded=0;orthogonalLoop=1;jettySize=auto;html=1;exitX=1;exitY=0.5;exitDx=0;exitDy=0;exitPerimeter=0;" edge="1" parent="iDgbX58GDVkkqR7G9HbA-2" source="iDgbX58GDVkkqR7G9HbA-31" target="iDgbX58GDVkkqR7G9HbA-13">
          <mxGeometry relative="1" as="geometry">
            <mxPoint x="1612.5" y="315" as="targetPoint" />
          </mxGeometry>
        </mxCell>
        <mxCell id="iDgbX58GDVkkqR7G9HbA-15" value="&quot;El cups que usted intenta facturar no coincide con lo autorizado&quot;" style="shape=partialRectangle;whiteSpace=wrap;html=1;bottom=0;right=0;fillColor=none;dashed=1;" vertex="1" parent="iDgbX58GDVkkqR7G9HbA-2">
          <mxGeometry x="1312.5" y="370" width="120" height="60" as="geometry" />
        </mxCell>
        <mxCell id="iDgbX58GDVkkqR7G9HbA-16" style="edgeStyle=orthogonalEdgeStyle;rounded=0;orthogonalLoop=1;jettySize=auto;html=1;entryX=0;entryY=0.5;entryDx=0;entryDy=0;entryPerimeter=0;" edge="1" parent="iDgbX58GDVkkqR7G9HbA-2" source="iDgbX58GDVkkqR7G9HbA-17" target="iDgbX58GDVkkqR7G9HbA-20">
          <mxGeometry relative="1" as="geometry" />
        </mxCell>
        <mxCell id="iDgbX58GDVkkqR7G9HbA-17" value="Escoger proceso &quot;&lt;i&gt;PRIMERA VEZ&quot;&lt;/i&gt;" style="points=[[0.25,0,0],[0.5,0,0],[0.75,0,0],[1,0.25,0],[1,0.5,0],[1,0.75,0],[0.75,1,0],[0.5,1,0],[0.25,1,0],[0,0.75,0],[0,0.5,0],[0,0.25,0]];shape=mxgraph.bpmn.task;whiteSpace=wrap;rectStyle=rounded;size=10;html=1;container=1;expand=0;collapsible=0;taskMarker=manual;fillColor=#fff2cc;strokeColor=#d6b656;" vertex="1" parent="iDgbX58GDVkkqR7G9HbA-2">
          <mxGeometry x="270" y="20" width="120" height="80" as="geometry" />
        </mxCell>
        <mxCell id="iDgbX58GDVkkqR7G9HbA-18" style="edgeStyle=orthogonalEdgeStyle;rounded=0;orthogonalLoop=1;jettySize=auto;html=1;" edge="1" parent="iDgbX58GDVkkqR7G9HbA-2" source="iDgbX58GDVkkqR7G9HbA-19" target="iDgbX58GDVkkqR7G9HbA-17">
          <mxGeometry relative="1" as="geometry">
            <mxPoint x="270" y="60" as="targetPoint" />
          </mxGeometry>
        </mxCell>
        <mxCell id="iDgbX58GDVkkqR7G9HbA-19" value="Ingresar a OASIS módulo erip" style="points=[[0.25,0,0],[0.5,0,0],[0.75,0,0],[1,0.25,0],[1,0.5,0],[1,0.75,0],[0.75,1,0],[0.5,1,0],[0.25,1,0],[0,0.75,0],[0,0.5,0],[0,0.25,0]];shape=mxgraph.bpmn.task;whiteSpace=wrap;rectStyle=rounded;size=10;html=1;container=1;expand=0;collapsible=0;taskMarker=user;fillColor=#fff2cc;strokeColor=#d6b656;" vertex="1" parent="iDgbX58GDVkkqR7G9HbA-2">
          <mxGeometry x="110" y="20" width="120" height="80" as="geometry" />
        </mxCell>
        <mxCell id="iDgbX58GDVkkqR7G9HbA-20" value="Seleccionar modalidad &lt;i&gt;PBS &lt;/i&gt;y Servicio &quot;&lt;i&gt;Ambulatorio&quot;&lt;/i&gt;" style="points=[[0.25,0,0],[0.5,0,0],[0.75,0,0],[1,0.25,0],[1,0.5,0],[1,0.75,0],[0.75,1,0],[0.5,1,0],[0.25,1,0],[0,0.75,0],[0,0.5,0],[0,0.25,0]];shape=mxgraph.bpmn.task;whiteSpace=wrap;rectStyle=rounded;size=10;html=1;container=1;expand=0;collapsible=0;taskMarker=manual;fillColor=#fff2cc;strokeColor=#d6b656;" vertex="1" parent="iDgbX58GDVkkqR7G9HbA-2">
          <mxGeometry x="440" y="20" width="120" height="80" as="geometry" />
        </mxCell>
        <mxCell id="iDgbX58GDVkkqR7G9HbA-21" style="edgeStyle=orthogonalEdgeStyle;rounded=0;orthogonalLoop=1;jettySize=auto;html=1;entryX=0;entryY=0.5;entryDx=0;entryDy=0;entryPerimeter=0;" edge="1" parent="iDgbX58GDVkkqR7G9HbA-2" source="iDgbX58GDVkkqR7G9HbA-22" target="iDgbX58GDVkkqR7G9HbA-24">
          <mxGeometry relative="1" as="geometry" />
        </mxCell>
        <mxCell id="iDgbX58GDVkkqR7G9HbA-22" value="Dar clic en validar u cargar archivos RIPS" style="points=[[0.25,0,0],[0.5,0,0],[0.75,0,0],[1,0.25,0],[1,0.5,0],[1,0.75,0],[0.75,1,0],[0.5,1,0],[0.25,1,0],[0,0.75,0],[0,0.5,0],[0,0.25,0]];shape=mxgraph.bpmn.task;whiteSpace=wrap;rectStyle=rounded;size=10;html=1;container=1;expand=0;collapsible=0;taskMarker=manual;fillColor=#fff2cc;strokeColor=#d6b656;" vertex="1" parent="iDgbX58GDVkkqR7G9HbA-2">
          <mxGeometry x="600" y="20" width="120" height="80" as="geometry" />
        </mxCell>
        <mxCell id="iDgbX58GDVkkqR7G9HbA-23" style="edgeStyle=orthogonalEdgeStyle;rounded=0;orthogonalLoop=1;jettySize=auto;html=1;entryX=0;entryY=0.5;entryDx=0;entryDy=0;entryPerimeter=0;" edge="1" parent="iDgbX58GDVkkqR7G9HbA-2" source="iDgbX58GDVkkqR7G9HbA-24" target="iDgbX58GDVkkqR7G9HbA-8">
          <mxGeometry relative="1" as="geometry">
            <mxPoint x="942" y="60" as="sourcePoint" />
          </mxGeometry>
        </mxCell>
        <mxCell id="iDgbX58GDVkkqR7G9HbA-24" value="Verificar que los cups reportados en los rips (AP y AC) se encuentren en el AS" style="points=[[0.25,0,0],[0.5,0,0],[0.75,0,0],[1,0.25,0],[1,0.5,0],[1,0.75,0],[0.75,1,0],[0.5,1,0],[0.25,1,0],[0,0.75,0],[0,0.5,0],[0,0.25,0]];shape=mxgraph.bpmn.task;whiteSpace=wrap;rectStyle=rounded;size=10;html=1;container=1;expand=0;collapsible=0;taskMarker=service;fillColor=#fff2cc;strokeColor=#d6b656;" vertex="1" parent="iDgbX58GDVkkqR7G9HbA-2">
          <mxGeometry x="769.5" y="20" width="140" height="80" as="geometry" />
        </mxCell>
        <mxCell id="iDgbX58GDVkkqR7G9HbA-25" style="edgeStyle=orthogonalEdgeStyle;rounded=0;orthogonalLoop=1;jettySize=auto;html=1;entryX=0;entryY=0.5;entryDx=0;entryDy=0;entryPerimeter=0;" edge="1" parent="iDgbX58GDVkkqR7G9HbA-2" source="iDgbX58GDVkkqR7G9HbA-26" target="iDgbX58GDVkkqR7G9HbA-29">
          <mxGeometry relative="1" as="geometry" />
        </mxCell>
        <mxCell id="iDgbX58GDVkkqR7G9HbA-26" value="Rechazar la factura reportada en los rips" style="points=[[0.25,0,0],[0.5,0,0],[0.75,0,0],[1,0.25,0],[1,0.5,0],[1,0.75,0],[0.75,1,0],[0.5,1,0],[0.25,1,0],[0,0.75,0],[0,0.5,0],[0,0.25,0]];shape=mxgraph.bpmn.task;whiteSpace=wrap;rectStyle=rounded;size=10;html=1;container=1;expand=0;collapsible=0;taskMarker=service;fillColor=#fff2cc;strokeColor=#d6b656;" vertex="1" parent="iDgbX58GDVkkqR7G9HbA-2">
          <mxGeometry x="940" y="200" width="135" height="80" as="geometry" />
        </mxCell>
        <mxCell id="iDgbX58GDVkkqR7G9HbA-27" value="Continuar con el flujo normal de validaciones de los rips" style="points=[[0.25,0,0],[0.5,0,0],[0.75,0,0],[1,0.25,0],[1,0.5,0],[1,0.75,0],[0.75,1,0],[0.5,1,0],[0.25,1,0],[0,0.75,0],[0,0.5,0],[0,0.25,0]];shape=mxgraph.bpmn.task;whiteSpace=wrap;rectStyle=rounded;size=10;html=1;container=1;expand=0;collapsible=0;taskMarker=service;fillColor=#fff2cc;strokeColor=#d6b656;" vertex="1" parent="iDgbX58GDVkkqR7G9HbA-2">
          <mxGeometry x="1105" y="20" width="135" height="80" as="geometry" />
        </mxCell>
        <mxCell id="iDgbX58GDVkkqR7G9HbA-28" style="edgeStyle=orthogonalEdgeStyle;rounded=0;orthogonalLoop=1;jettySize=auto;html=1;entryX=0;entryY=0.5;entryDx=0;entryDy=0;entryPerimeter=0;" edge="1" parent="iDgbX58GDVkkqR7G9HbA-2" source="iDgbX58GDVkkqR7G9HbA-29" target="iDgbX58GDVkkqR7G9HbA-31">
          <mxGeometry relative="1" as="geometry" />
        </mxCell>
        <mxCell id="iDgbX58GDVkkqR7G9HbA-29" value="Cargar error del proceso de validación de cups" style="points=[[0.25,0,0],[0.5,0,0],[0.75,0,0],[1,0.25,0],[1,0.5,0],[1,0.75,0],[0.75,1,0],[0.5,1,0],[0.25,1,0],[0,0.75,0],[0,0.5,0],[0,0.25,0]];shape=mxgraph.bpmn.task;whiteSpace=wrap;rectStyle=rounded;size=10;html=1;container=1;expand=0;collapsible=0;taskMarker=service;fillColor=#fff2cc;strokeColor=#d6b656;" vertex="1" parent="iDgbX58GDVkkqR7G9HbA-2">
          <mxGeometry x="1122.5" y="200" width="135" height="80" as="geometry" />
        </mxCell>
        <mxCell id="iDgbX58GDVkkqR7G9HbA-30" style="edgeStyle=orthogonalEdgeStyle;rounded=0;orthogonalLoop=1;jettySize=auto;html=1;entryX=0.5;entryY=0;entryDx=0;entryDy=0;entryPerimeter=0;" edge="1" parent="iDgbX58GDVkkqR7G9HbA-2" source="iDgbX58GDVkkqR7G9HbA-31" target="iDgbX58GDVkkqR7G9HbA-12">
          <mxGeometry relative="1" as="geometry" />
        </mxCell>
        <mxCell id="iDgbX58GDVkkqR7G9HbA-31" value="Mostrar mensaje en el informe de errores PDF del modulo ERRE" style="points=[[0.25,0,0],[0.5,0,0],[0.75,0,0],[1,0.25,0],[1,0.5,0],[1,0.75,0],[0.75,1,0],[0.5,1,0],[0.25,1,0],[0,0.75,0],[0,0.5,0],[0,0.25,0]];shape=mxgraph.bpmn.task;whiteSpace=wrap;rectStyle=rounded;size=10;html=1;container=1;expand=0;collapsible=0;taskMarker=send;fillColor=#fff2cc;strokeColor=#d6b656;" vertex="1" parent="iDgbX58GDVkkqR7G9HbA-2">
          <mxGeometry x="1302.5" y="200" width="140" height="80" as="geometry" />
        </mxCell>
      </root>
    </mxGraphModel>
  </diagram>
</mxfile>
